<?xml version="1.0" encoding="UTF-8" standalone="no"?>
<!-- Created with Inkscape (http://www.inkscape.org/) -->

<svg
   xmlns:dc="http://purl.org/dc/elements/1.1/"
   xmlns:cc="http://creativecommons.org/ns#"
   xmlns:rdf="http://www.w3.org/1999/02/22-rdf-syntax-ns#"
   xmlns:svg="http://www.w3.org/2000/svg"
   xmlns="http://www.w3.org/2000/svg"
   xmlns:sodipodi="http://sodipodi.sourceforge.net/DTD/sodipodi-0.dtd"
   xmlns:inkscape="http://www.inkscape.org/namespaces/inkscape"
   width="391.92056"
   height="115.15083"
   viewBox="0 0 103.69565 30.466989"
   version="1.1"
   id="svg831"
   inkscape:version="0.92.2 5c3e80d, 2017-08-06"
   sodipodi:docname="C2 inverted text.svg">
  <defs
     id="defs825" />
  <sodipodi:namedview
     id="base"
     pagecolor="#ffffff"
     bordercolor="#666666"
     borderopacity="1.0"
     inkscape:pageopacity="0.0"
     inkscape:pageshadow="2"
     inkscape:zoom="1.979899"
     inkscape:cx="199.91089"
     inkscape:cy="102.39953"
     inkscape:document-units="px"
     inkscape:current-layer="g1086"
     showgrid="true"
     showborder="false"
     units="px"
     inkscape:window-width="1280"
     inkscape:window-height="755"
     inkscape:window-x="0"
     inkscape:window-y="1"
     inkscape:window-maximized="1"
     inkscape:snap-nodes="false"
     fit-margin-top="0"
     fit-margin-left="0"
     fit-margin-right="0"
     fit-margin-bottom="0"
     inkscape:snap-bbox="true"
     inkscape:bbox-nodes="true"
     inkscape:bbox-paths="true"
     inkscape:snap-bbox-edge-midpoints="true">
    <inkscape:grid
       type="xygrid"
       id="grid1080"
       originx="-9.987894e-07"
       originy="4.0086556" />
  </sodipodi:namedview>
  <metadata
     id="metadata828">
    <rdf:RDF>
      <cc:Work
         rdf:about="">
        <dc:format>image/svg+xml</dc:format>
        <dc:type
           rdf:resource="http://purl.org/dc/dcmitype/StillImage" />
        <dc:title></dc:title>
      </cc:Work>
    </rdf:RDF>
  </metadata>
  <g
     inkscape:label="Layer 1"
     inkscape:groupmode="layer"
     id="layer1"
     transform="translate(97.328907,-146.04557)">
    <g
       id="g1086"
       transform="matrix(1.1767201,0,0,1.1767201,17.199973,-26.47625)">
      <path
         inkscape:connector-curvature="0"
         id="path904"
         d="m -63.405432,146.61266 a 5.3389132,4.9609369 0 0 0 -3.688146,1.37615 5.1499256,4.9609369 0 0 0 -3.446301,-1.28158 5.1499256,4.9609369 0 0 0 -4.038513,1.89084 4.9609374,3.6380205 0 0 0 -3.709852,-1.22938 4.9609374,3.6380205 0 0 0 -4.620906,2.32544 6.9300383,5.4181337 0 0 0 -3.505729,-0.75086 6.9300383,5.4181337 0 0 0 -6.929807,5.41776 6.9300383,5.4181337 0 0 0 0.0884,0.84232 4.7247024,3.6380208 0 0 0 -4.07262,3.59926 4.7247024,3.6380208 0 0 0 2.18385,3.06235 4.7247024,3.6380205 0 0 0 -1.14412,2.37092 4.7247024,3.6380205 0 0 0 4.72426,3.63802 4.7247024,3.6380205 0 0 0 0.32453,-0.009 7.2760413,4.9609369 0 0 0 6.809922,3.22151 7.2760413,4.9609369 0 0 0 4.005956,-0.82269 6.7563248,5.1026782 0 0 0 5.58519,2.24018 6.7563248,5.1026782 0 0 0 6.541719,-3.85248 5.8586311,4.9609369 0 0 0 3.143994,0.78135 5.8586311,4.9609369 0 0 0 5.835819,-4.57285 7.7012643,5.8113831 0 0 0 5.834269,-5.63222 7.7012643,5.8113831 0 0 0 -1.329635,-3.25458 7.2760408,4.9609369 0 0 0 0.479042,-1.7539 7.2760408,4.9609369 0 0 0 -4.102076,-4.45709 5.3389132,4.9609369 0 0 0 -4.969206,-3.14968 z"
         style="opacity:1;fill:#29fd2f;fill-opacity:1;fill-rule:nonzero;stroke:none;stroke-width:0.61178851;stroke-linecap:round;stroke-linejoin:miter;stroke-miterlimit:4;stroke-dasharray:none;stroke-dashoffset:0;stroke-opacity:1;paint-order:normal" />
      <g
         aria-label="C2"
         style="font-style:normal;font-variant:normal;font-weight:normal;font-stretch:normal;font-size:4.23333311px;line-height:1.25;font-family:'Courier New';-inkscape-font-specification:'Courier New';letter-spacing:0px;word-spacing:0px;fill:#29fd2f;fill-opacity:1;stroke:none;stroke-width:0.26458332"
         id="text843">
        <path
           d="m -75.838556,155.62511 q 0.117822,-0.16123 0.254248,-0.24185 0.142627,-0.0806 0.303857,-0.0806 0.279053,0 0.452686,0.19223 0.179834,0.19224 0.179834,0.65113 v 1.079 q 0,0.45889 -0.179834,0.65732 -0.173633,0.19224 -0.452686,0.19224 -0.254248,0 -0.409277,-0.14263 -0.155029,-0.14262 -0.229443,-0.5333 -0.04341,-0.26045 -0.173633,-0.40307 -0.254248,-0.27906 -0.713135,-0.44649 -0.452685,-0.16743 -0.911572,-0.16743 -0.570508,0 -1.047998,0.24805 -0.47749,0.24804 -0.843359,0.80615 -0.36587,0.5581 -0.36587,1.32705 v 0.82476 q 0,0.91777 0.663526,1.53169 0.669726,0.61391 1.85415,0.61391 0.706934,0 1.196826,-0.19224 0.285254,-0.11162 0.607715,-0.44028 0.198438,-0.19844 0.310059,-0.25425 0.111621,-0.062 0.254248,-0.062 0.254248,0 0.446484,0.19224 0.192236,0.19223 0.192236,0.45268 0,0.26045 -0.260449,0.55811 -0.378271,0.43408 -0.973584,0.68213 -0.799951,0.33486 -1.767334,0.33486 -1.128613,0 -2.033984,-0.46509 -0.731738,-0.37207 -1.246436,-1.17202 -0.514697,-0.80615 -0.514697,-1.75493 v -0.86196 q 0,-0.99219 0.458887,-1.84795 0.465088,-0.86196 1.283642,-1.32705 0.818555,-0.46509 1.736329,-0.46509 0.551904,0 1.029394,0.13022 0.483691,0.12403 0.89917,0.38448 z"
           style="font-style:normal;font-variant:normal;font-weight:bold;font-stretch:normal;font-size:12.69999981px;font-family:'Courier New';-inkscape-font-specification:'Courier New Bold';fill:#212121;fill-opacity:1;stroke-width:0.26458332"
           id="path1136"
           inkscape:connector-curvature="0" />
        <path
           d="m -71.404718,161.54723 h 2.784326 q 0.229443,-0.18604 0.434082,-0.18604 0.291455,0 0.458887,0.19224 0.173632,0.19223 0.173632,0.65732 v 0.60772 h -5.791894 v -1.34566 q 3.435449,-2.83393 4.148584,-3.64629 0.359668,-0.41548 0.359668,-0.78755 0,-0.46508 -0.409277,-0.81855 -0.403077,-0.35967 -1.079004,-0.35967 -0.682129,0 -1.134815,0.39688 -0.235644,0.21084 -0.378271,0.62631 -0.08682,0.26045 -0.241846,0.37208 -0.148828,0.11162 -0.37207,0.11162 -0.260449,0 -0.452686,-0.18604 -0.186035,-0.18603 -0.186035,-0.43408 0,-0.37207 0.341064,-0.93018 0.347266,-0.5581 1.00459,-0.89297 0.663526,-0.33486 1.438672,-0.33486 1.203027,0 1.971973,0.73174 0.768945,0.72554 0.768945,1.76113 0,0.5271 -0.223242,0.97979 -0.217041,0.44648 -1.054199,1.24023 -0.657325,0.62632 -2.561084,2.24483 z"
           style="font-style:normal;font-variant:normal;font-weight:bold;font-stretch:normal;font-size:12.69999981px;font-family:'Courier New';-inkscape-font-specification:'Courier New Bold';fill:#212121;fill-opacity:1;stroke-width:0.26458332"
           id="path1138"
           inkscape:connector-curvature="0" />
      </g>
      <path
         inkscape:connector-curvature="0"
         transform="matrix(0.26458333,0,0,0.26458333,0,86.99999)"
         id="path1015"
         d="m -240.83008,230.56836 a 8.3657101,8.3657101 0 0 0 -8.24023,6.96875 l -38.46094,3.43945 a 8.3657101,8.3657101 0 0 0 0.0137,-0.27344 8.3657101,8.3657101 0 0 0 -8.36719,-8.36718 8.3657101,8.3657101 0 0 0 -8.33203,7.69531 l -28.13476,8.45898 a 8.3657101,8.3657101 0 0 0 -5.70703,-2.26367 8.3657101,8.3657101 0 0 0 -8.36524,8.36524 8.3657101,8.3657101 0 0 0 2.28711,5.74023 l -6.4414,24.05664 a 8.3657101,8.3657101 0 0 0 -7.71485,8.33594 8.3657101,8.3657101 0 0 0 8.36524,8.36719 8.3657101,8.3657101 0 0 0 5.18164,-1.80078 l 52.25,12.5996 a 8.3657101,8.3657101 0 0 0 8.22851,6.87696 8.3657101,8.3657101 0 0 0 8.2832,-7.25781 l 29.88672,-13.51758 a 8.3657101,8.3657101 0 0 0 8.29688,7.39258 8.3657101,8.3657101 0 0 0 8.36523,-8.36719 8.3657101,8.3657101 0 0 0 -1.72265,-5.07422 l 13.33789,-13.94531 a 8.3657101,8.3657101 0 0 0 5.27343,1.8789 8.3657101,8.3657101 0 0 0 8.36524,-8.36523 8.3657101,8.3657101 0 0 0 -8.36524,-8.36524 8.3657101,8.3657101 0 0 0 -5.34179,1.9375 l -16.78906,-20.49609 a 8.3657101,8.3657101 0 0 0 2.21289,-5.6543 8.3657101,8.3657101 0 0 0 -8.36524,-8.36523 z m -8.3418,8.98828 a 8.3657101,8.3657101 0 0 0 7.63477,7.70703 l -5.45508,15.14844 a 8.3657101,8.3657101 0 0 0 -7.75976,8.3418 8.3657101,8.3657101 0 0 0 8.17187,8.35547 l 1.86719,13.19921 a 8.3657101,8.3657101 0 0 0 -1.35156,3.47071 l -29.91797,13.53711 a 8.3657101,8.3657101 0 0 0 -8.28516,-7.2793 8.3657101,8.3657101 0 0 0 -5.65039,2.20898 l -21.16797,-20.38086 a 8.3657101,8.3657101 0 0 0 2.10156,-5.53515 8.3657101,8.3657101 0 0 0 -7.02734,-8.24805 l 15.95508,-22.13867 a 8.3657101,8.3657101 0 0 0 4.17187,1.125 8.3657101,8.3657101 0 0 0 8.03321,-6.05469 z m -54.96093,2.53516 a 8.3657101,8.3657101 0 0 0 2.47656,4.65234 l -16.79492,23.30274 a 8.3657101,8.3657101 0 0 0 -4.36914,1.97265 l -8.5,-12.48437 a 8.3657101,8.3657101 0 0 0 1.6289,-4.94336 8.3657101,8.3657101 0 0 0 -1.27343,-4.42774 z m 67.93945,3.79882 16.92188,20.66016 a 8.3657101,8.3657101 0 0 0 -1.63086,4.74805 L -238.06055,270 a 8.3657101,8.3657101 0 0 0 -6.8457,-7.47266 l 5.52734,-15.35546 a 8.3657101,8.3657101 0 0 0 3.18555,-1.28126 z m -96.5293,15.14063 8.52344,12.52148 a 8.3657101,8.3657101 0 0 0 -1.51562,4.77735 8.3657101,8.3657101 0 0 0 0.0117,0.375 l -18.80665,7.64648 a 8.3657101,8.3657101 0 0 0 -4.02148,-1.86718 l 6.09766,-22.7754 a 8.3657101,8.3657101 0 0 0 4.375,1.24805 8.3657101,8.3657101 0 0 0 5.33593,-1.92578 z m 94.59766,10.9668 17.41992,1.32031 a 8.3657101,8.3657101 0 0 0 1.49219,3.23633 l -13.3418,13.95508 a 8.3657101,8.3657101 0 0 0 -5.24609,-1.85743 8.3657101,8.3657101 0 0 0 -5.1582,1.78321 l -1.62891,-11.52149 a 8.3657101,8.3657101 0 0 0 6.46289,-6.91601 z m -87.23438,8.72461 a 8.3657101,8.3657101 0 0 0 8.00977,5.97265 8.3657101,8.3657101 0 0 0 4.76172,-1.5 l 21.36328,20.57031 a 8.3657101,8.3657101 0 0 0 -1.37891,4.03711 l -50.55078,-12.18164 a 8.3657101,8.3657101 0 0 0 1.5918,-4.89648 8.3657101,8.3657101 0 0 0 -1.52344,-4.79492 z"
         style="opacity:1;fill:#212121;fill-opacity:1;fill-rule:nonzero;stroke:none;stroke-width:0;stroke-linecap:round;stroke-linejoin:miter;stroke-miterlimit:4;stroke-dasharray:none;stroke-dashoffset:0;stroke-opacity:1;paint-order:normal" />
      <text
         xml:space="preserve"
         style="font-style:normal;font-variant:normal;font-weight:normal;font-stretch:normal;font-size:7.19514036px;line-height:1.25;font-family:Inconsolata;-inkscape-font-specification:Inconsolata;letter-spacing:0px;word-spacing:0px;fill:#00ff00;fill-opacity:1;stroke:none;stroke-width:0.22484814"
         x="-51.540691"
         y="153.35544"
         id="text1517"><tspan
           sodipodi:role="line"
           id="tspan1515"
           x="-51.540691"
           y="153.35544"
           style="font-style:italic;font-variant:normal;font-weight:bold;font-stretch:normal;font-size:7.79473543px;line-height:0.80000001;font-family:'Courier New';-inkscape-font-specification:'Courier New Bold Italic';letter-spacing:0px;fill:#00ff00;fill-opacity:1;stroke-width:0.22484814">C2<tspan
   style="font-size:2.99797511px;letter-spacing:0px;fill:#00ff00;fill-opacity:1"
   id="tspan1538"> </tspan>CYBER</tspan><tspan
           sodipodi:role="line"
           x="-51.540691"
           y="162.34937"
           style="font-style:italic;font-variant:normal;font-weight:bold;font-stretch:normal;font-size:7.79473543px;line-height:0.80000001;font-family:'Courier New';-inkscape-font-specification:'Courier New Bold Italic';letter-spacing:0px;fill:#00ff00;fill-opacity:1;stroke-width:0.22484814"
           id="tspan1519">SOLUTIONS</tspan><tspan
           sodipodi:role="line"
           x="-51.540691"
           y="171.34329"
           style="font-style:italic;font-variant:normal;font-weight:bold;font-stretch:normal;font-size:7.79473543px;line-height:0.80000001;font-family:'Courier New';-inkscape-font-specification:'Courier New Bold Italic';letter-spacing:0px;fill:#00ff00;fill-opacity:1;stroke-width:0.22484814"
           id="tspan1521">LLC</tspan></text>
      <flowRoot
         xml:space="preserve"
         id="flowRoot1523"
         style="font-style:normal;font-variant:normal;font-weight:normal;font-stretch:normal;font-size:32px;line-height:1.25;font-family:Inconsolata;-inkscape-font-specification:Inconsolata;letter-spacing:0px;word-spacing:0px;fill:#000000;fill-opacity:1;stroke:none"
         transform="matrix(0.22484814,0,0,0.22484814,-97.328906,146.61245)"><flowRegion
           id="flowRegion1525"><rect
             id="rect1527"
             width="39.39595"
             height="84.34774"
             x="217.1828"
             y="10.094969" /></flowRegion><flowPara
           id="flowPara1529"></flowPara></flowRoot>    </g>
  </g>
</svg>
